<svg width="143" height="29" viewBox="0 0 143 29" stroke="3" color="rgb(37, 99, 235)" fill="currentColor" xmlns="http://www.w3.org/2000/svg">
  <path
    d="M11.9834 28.5614C9.73767 28.5614 7.74924 28.1521 6.01813 27.3333C4.28702 26.4911 2.93021 25.3332 1.94769 23.8594C0.988563 22.3856 0.509 20.7013 0.509 18.8064V2.41939C0.509 1.88134 0.68445 1.44857 1.03535 1.12106C1.38625 0.770159 1.81903 0.594709 2.33368 0.594709C2.87173 0.594709 3.3045 0.770159 3.63201 1.12106C3.98291 1.44857 4.15836 1.88134 4.15836 2.41939V18.8064C4.15836 20.0697 4.48587 21.1925 5.14088 22.1751C5.81929 23.1342 6.74332 23.8945 7.91299 24.4559C9.10605 24.994 10.4629 25.263 11.9834 25.263C13.4572 25.263 14.7555 24.994 15.8784 24.4559C17.0247 23.8945 17.9136 23.1342 18.5453 22.1751C19.2003 21.1925 19.5278 20.0697 19.5278 18.8064V2.41939C19.5278 1.88134 19.7032 1.44857 20.0541 1.12106C20.405 0.770159 20.8378 0.594709 21.3525 0.594709C21.8905 0.594709 22.3233 0.770159 22.6508 1.12106C22.9783 1.44857 23.1421 1.88134 23.1421 2.41939V18.8064C23.1421 20.7013 22.6625 22.3856 21.7034 23.8594C20.7676 25.3332 19.4576 26.4911 17.7733 27.3333C16.089 28.1521 14.159 28.5614 11.9834 28.5614ZM38.8528 28.3509C37.3556 28.3509 35.9286 28.117 34.5718 27.6491C33.215 27.1812 32.0336 26.5262 31.0277 25.6841C30.0218 24.8419 29.2849 23.8711 28.817 22.7716C28.5831 22.2803 28.5831 21.8242 28.817 21.4031C29.0744 20.982 29.4954 20.713 30.0803 20.596C30.5014 20.5024 30.9107 20.5726 31.3084 20.8065C31.7295 21.0171 32.0453 21.3446 32.2559 21.7891C32.5366 22.3739 32.9927 22.9119 33.6244 23.4032C34.2794 23.8945 35.0631 24.2922 35.9754 24.5963C36.8877 24.9004 37.8469 25.0524 38.8528 25.0524C39.9757 25.0524 41.005 24.877 41.9407 24.5261C42.8998 24.1752 43.6718 23.6722 44.2566 23.0172C44.8415 22.3388 45.1339 21.5083 45.1339 20.5258C45.1339 19.286 44.6426 18.1748 43.6601 17.1923C42.701 16.2098 41.1102 15.6015 38.8879 15.3676C35.9871 15.0869 33.7062 14.233 32.0453 12.806C30.3844 11.379 29.5539 9.61284 29.5539 7.50744C29.5539 5.96348 29.9867 4.65345 30.8523 3.57736C31.7178 2.50127 32.8875 1.6825 34.3613 1.12106C35.8584 0.559619 37.5194 0.278899 39.344 0.278899C40.771 0.278899 42.0109 0.477742 43.0636 0.875428C44.1397 1.27311 45.0754 1.82286 45.8708 2.52466C46.6661 3.22646 47.3563 4.05692 47.9411 5.01605C48.2686 5.5307 48.3973 6.02196 48.3271 6.48983C48.2803 6.9343 48.0581 7.2852 47.6604 7.54253C47.2159 7.82325 46.7363 7.88173 46.2217 7.71798C45.707 7.55423 45.321 7.25011 45.0637 6.80564C44.6894 6.12723 44.2332 5.5541 43.6952 5.08623C43.1571 4.61836 42.5255 4.25577 41.8003 3.99844C41.0751 3.71772 40.2213 3.57736 39.2388 3.57736C37.5077 3.55397 36.0573 3.88147 34.8876 4.55988C33.7179 5.21489 33.1331 6.2325 33.1331 7.61271C33.1331 8.31451 33.3086 8.99292 33.6595 9.64793C34.0337 10.2795 34.7005 10.8293 35.6596 11.2972C36.6421 11.765 38.0457 12.0925 39.8704 12.2797C42.6542 12.5604 44.8181 13.4143 46.362 14.8412C47.9294 16.2448 48.7131 18.1046 48.7131 20.4206C48.7131 21.754 48.4323 22.9119 47.8709 23.8945C47.3329 24.877 46.596 25.7075 45.6602 26.3859C44.7479 27.0409 43.6952 27.5321 42.5021 27.8596C41.3325 28.1871 40.116 28.3509 38.8528 28.3509ZM61.3085 28.1244C59.6504 28.1244 58.1684 27.7513 56.8626 27.0051C55.5776 26.2382 54.562 25.2123 53.8158 23.9272C53.0904 22.6214 52.7277 21.1498 52.7277 19.5124C52.7277 17.8336 53.0904 16.3412 53.8158 15.0355C54.5413 13.7297 55.5361 12.7141 56.8005 11.9886C58.0648 11.2425 59.5157 10.8694 61.1531 10.8694C62.3759 10.8694 63.4952 11.1078 64.5108 11.5845C65.5264 12.0405 66.4384 12.7348 67.2467 13.6675C67.5369 13.9991 67.6405 14.3411 67.5576 14.6935C67.4747 15.0458 67.2467 15.3567 66.8736 15.6262C66.5835 15.8334 66.2622 15.906 65.9098 15.8438C65.5575 15.7609 65.2362 15.5744 64.946 15.2842C63.9304 14.2064 62.6661 13.6675 61.1531 13.6675C60.096 13.6675 59.1633 13.9162 58.355 14.4137C57.5466 14.8904 56.9145 15.564 56.4585 16.4345C56.0025 17.305 55.7745 18.331 55.7745 19.5124C55.7745 20.6317 56.0025 21.6265 56.4585 22.4971C56.9352 23.3676 57.5881 24.0619 58.4171 24.5801C59.2462 25.0775 60.21 25.3263 61.3085 25.3263C62.0339 25.3263 62.6661 25.2434 63.205 25.0775C63.7646 24.891 64.2724 24.6112 64.7284 24.2381C65.06 23.9687 65.402 23.8236 65.7544 23.8028C66.1067 23.7614 66.4176 23.8547 66.6871 24.0827C67.0394 24.3728 67.2363 24.7045 67.2778 25.0775C67.3192 25.4299 67.1949 25.7512 66.9047 26.0413C65.4124 27.43 63.547 28.1244 61.3085 28.1244ZM74.1669 21.8131C73.7109 21.8131 73.3275 21.668 73.0166 21.3778C72.7264 21.0669 72.5813 20.6835 72.5813 20.2275V5.3043C72.5813 4.82759 72.7264 4.44414 73.0166 4.15397C73.3275 3.8638 73.7109 3.71871 74.1669 3.71871C74.6436 3.71871 75.0271 3.8638 75.3172 4.15397C75.6074 4.44414 75.7525 4.82759 75.7525 5.3043V20.2275C75.7525 20.6835 75.6074 21.0669 75.3172 21.3778C75.0271 21.668 74.6436 21.8131 74.1669 21.8131ZM86.9449 28.0311C86.4889 28.0311 86.1055 27.886 85.7946 27.5958C85.5044 27.2849 85.3593 26.9015 85.3593 26.4455V18.7974C85.3593 17.6159 85.1417 16.6521 84.7064 15.906C84.2712 15.1598 83.6804 14.6106 82.9343 14.2582C82.2088 13.8851 81.3694 13.6986 80.416 13.6986C79.5455 13.6986 78.7579 13.8748 78.0532 14.2271C77.3484 14.5795 76.7888 15.0562 76.3743 15.6573C75.9598 16.2376 75.7525 16.9112 75.7525 17.6781H73.7938C73.7938 16.3723 74.1047 15.2116 74.7265 14.196C75.369 13.1597 76.2396 12.341 77.3381 11.7399C78.4366 11.1389 79.6698 10.8383 81.0378 10.8383C82.4679 10.8383 83.7426 11.1492 84.8619 11.771C86.0018 12.3721 86.8931 13.2633 87.5356 14.4448C88.1989 15.6262 88.5305 17.077 88.5305 18.7974V26.4455C88.5305 26.9015 88.375 27.2849 88.0641 27.5958C87.774 27.886 87.4009 28.0311 86.9449 28.0311ZM74.1669 28.0311C73.7109 28.0311 73.3275 27.886 73.0166 27.5958C72.7264 27.2849 72.5813 26.9015 72.5813 26.4455V12.5794C72.5813 12.1026 72.7264 11.7192 73.0166 11.429C73.3275 11.1389 73.7109 10.9938 74.1669 10.9938C74.6436 10.9938 75.0271 11.1389 75.3172 11.429C75.6074 11.7192 75.7525 12.1026 75.7525 12.5794V26.4455C75.7525 26.9015 75.6074 27.2849 75.3172 27.5958C75.0271 27.886 74.6436 28.0311 74.1669 28.0311ZM101.825 28.1244C100.146 28.1244 98.6643 27.7616 97.3792 27.0362C96.0942 26.29 95.0786 25.2744 94.3324 23.9894C93.607 22.6836 93.2443 21.1913 93.2443 19.5124C93.2443 17.8128 93.607 16.3205 94.3324 15.0355C95.0786 13.7297 96.0942 12.7141 97.3792 11.9886C98.6643 11.2425 100.146 10.8694 101.825 10.8694C103.483 10.8694 104.955 11.2425 106.24 11.9886C107.525 12.7141 108.53 13.7297 109.256 15.0355C110.002 16.3205 110.375 17.8128 110.375 19.5124C110.375 21.1913 110.012 22.6836 109.287 23.9894C108.561 25.2744 107.556 26.29 106.271 27.0362C104.986 27.7616 103.504 28.1244 101.825 28.1244ZM101.825 25.3263C102.903 25.3263 103.856 25.0775 104.685 24.5801C105.514 24.0827 106.157 23.3987 106.613 22.5282C107.09 21.6576 107.328 20.6524 107.328 19.5124C107.328 18.3725 107.09 17.3672 106.613 16.4967C106.157 15.6055 105.514 14.9111 104.685 14.4137C103.856 13.9162 102.903 13.6675 101.825 13.6675C100.747 13.6675 99.7939 13.9162 98.9648 14.4137C98.1358 14.9111 97.4829 15.6055 97.0062 16.4967C96.5294 17.3672 96.2911 18.3725 96.2911 19.5124C96.2911 20.6524 96.5294 21.6576 97.0062 22.5282C97.4829 23.3987 98.1358 24.0827 98.9648 24.5801C99.7939 25.0775 100.747 25.3263 101.825 25.3263ZM123.116 28.1244C121.437 28.1244 119.955 27.7616 118.67 27.0362C117.385 26.29 116.369 25.2744 115.623 23.9894C114.898 22.6836 114.535 21.1913 114.535 19.5124C114.535 17.8128 114.898 16.3205 115.623 15.0355C116.369 13.7297 117.385 12.7141 118.67 11.9886C119.955 11.2425 121.437 10.8694 123.116 10.8694C124.774 10.8694 126.245 11.2425 127.53 11.9886C128.816 12.7141 129.821 13.7297 130.546 15.0355C131.292 16.3205 131.665 17.8128 131.665 19.5124C131.665 21.1913 131.303 22.6836 130.577 23.9894C129.852 25.2744 128.847 26.29 127.562 27.0362C126.276 27.7616 124.795 28.1244 123.116 28.1244ZM123.116 25.3263C124.193 25.3263 125.147 25.0775 125.976 24.5801C126.805 24.0827 127.448 23.3987 127.904 22.5282C128.38 21.6576 128.619 20.6524 128.619 19.5124C128.619 18.3725 128.38 17.3672 127.904 16.4967C127.448 15.6055 126.805 14.9111 125.976 14.4137C125.147 13.9162 124.193 13.6675 123.116 13.6675C122.038 13.6675 121.084 13.9162 120.255 14.4137C119.426 14.9111 118.773 15.6055 118.297 16.4967C117.82 17.3672 117.582 18.3725 117.582 19.5124C117.582 20.6524 117.82 21.6576 118.297 22.5282C118.773 23.3987 119.426 24.0827 120.255 24.5801C121.084 25.0775 122.038 25.3263 123.116 25.3263ZM140.738 28C139.826 28 139.017 27.7513 138.313 27.2538C137.608 26.7564 137.059 26.0828 136.665 25.233C136.271 24.3625 136.074 23.3676 136.074 22.2483V5.27321C136.074 4.81722 136.219 4.44414 136.509 4.15397C136.8 3.8638 137.173 3.71871 137.629 3.71871C138.085 3.71871 138.458 3.8638 138.748 4.15397C139.038 4.44414 139.183 4.81722 139.183 5.27321V22.2483C139.183 23.0152 139.328 23.6474 139.618 24.1448C139.909 24.6423 140.282 24.891 140.738 24.891H141.515C141.929 24.891 142.261 25.0361 142.51 25.3263C142.779 25.6164 142.914 25.9895 142.914 26.4455C142.914 26.9015 142.717 27.2746 142.323 27.5647C141.929 27.8549 141.422 28 140.8 28H140.738Z"
    fill="rgb(37, 99, 235)"/>
</svg>
